<svg xmlns="http://www.w3.org/2000/svg" height="24" viewBox="0 -960 960 960" width="24"><path d="M508.384-491.346v-158.347q0-11.413-8.239-19.649-8.24-8.235-19.658-8.235-11.641 0-19.852 8.235-8.211 8.236-8.211 19.649v167.077q0 6.575 2.461 12.739 2.462 6.163 7.594 11.261l135.984 136.539q7.999 8.269 19.461 8.461 11.461.193 20.153-8.499 8.5-8.5 8.5-19.769 0-11.269-8.458-19.919L508.384-491.346Zm-28.292 383.268q-77.152 0-145.066-29.325-67.914-29.324-118.152-79.595-50.238-50.27-79.517-118.055-29.279-67.785-29.279-144.855 0-77.152 29.325-145.066 29.324-67.914 79.595-118.152 50.27-50.238 118.055-79.517 67.785-29.279 144.855-29.279 77.152 0 145.066 29.325 67.914 29.324 118.152 79.595 50.238 50.27 79.517 118.055 29.279 67.785 29.279 144.855 0 77.152-29.325 145.066-29.324 67.914-79.595 118.152-50.27 50.238-118.055 79.517-67.785 29.279-144.855 29.279Z"/></svg>